<svg width="96" height="61" viewBox="0 0 96 61" fill="none" xmlns="http://www.w3.org/2000/svg">
<path d="M68.5 16.5L67.5642 16.1475L68.5 16.5ZM94.5 22.5L95.4823 22.3129L94.5 22.5ZM31.5 39L31.0567 39.8964L31.5 39ZM3 0L0.779917 11.3316L11.7034 7.58844L3 0ZM3.39692 4.242C3.59027 4.75933 4.16639 5.02197 4.68373 4.82862C5.20106 4.63527 5.4637 4.05915 5.27035 3.54181L3.39692 4.242ZM8.46254 11.0559C8.22488 10.5574 7.62807 10.3459 7.12954 10.5836C6.63101 10.8213 6.41953 11.4181 6.6572 11.9166L8.46254 11.0559ZM10.5861 19.2768C10.8691 19.751 11.4831 19.9059 11.9573 19.6228C12.4315 19.3397 12.5864 18.7258 12.3033 18.2516L10.5861 19.2768ZM16.8487 24.9974C16.5135 24.5585 15.8859 24.4744 15.447 24.8096C15.0081 25.1448 14.924 25.7723 15.2592 26.2113L16.8487 24.9974ZM20.8081 32.5044C21.2041 32.8893 21.8372 32.8802 22.2221 32.4842C22.607 32.0881 22.598 31.455 22.2019 31.0701L20.8081 32.5044ZM28.4648 36.1167C28.0017 35.8157 27.3824 35.947 27.0813 36.4101C26.7803 36.8731 26.9116 37.4925 27.3747 37.7935L28.4648 36.1167ZM35.2861 41.6116C35.8112 41.783 36.3757 41.4963 36.5471 40.9713C36.7185 40.4463 36.4318 39.8818 35.9068 39.7104L35.2861 41.6116ZM44.352 41.419C43.8023 41.3652 43.3131 41.7672 43.2593 42.3168C43.2055 42.8665 43.6074 43.3557 44.1571 43.4095L44.352 41.419ZM53.1567 43.5559C53.7081 43.5241 54.1293 43.0514 54.0975 42.5C54.0658 41.9487 53.5931 41.5274 53.0417 41.5592L53.1567 43.5559ZM61.706 40.5126C61.1626 40.611 60.8018 41.1314 60.9002 41.6748C60.9986 42.2183 61.5189 42.579 62.0623 42.4807L61.706 40.5126ZM70.7792 40.4064C71.3088 40.2498 71.6113 39.6935 71.4547 39.1639C71.2982 38.6343 70.7419 38.3318 70.2123 38.4884L70.7792 40.4064ZM78.4381 35.5505C77.9298 35.7665 77.6928 36.3536 77.9088 36.8619C78.1248 37.3702 78.7119 37.6072 79.2202 37.3913L78.4381 35.5505ZM87.231 33.2763C87.6987 32.9826 87.8398 32.3653 87.5461 31.8976C87.2525 31.4299 86.6352 31.2888 86.1675 31.5825L87.231 33.2763ZM92.4982 26.0845C92.185 26.5394 92.3 27.1621 92.755 27.4752C93.2099 27.7883 93.8326 27.6733 94.1457 27.2183L92.4982 26.0845ZM94.023 17.6816C93.7951 17.1786 93.2025 16.9556 92.6994 17.1836C92.1964 17.4116 91.9734 18.0042 92.2014 18.5072L94.023 17.6816ZM86.7621 11.8162C87.2122 12.1363 87.8365 12.031 88.1566 11.5809C88.4767 11.1309 88.3714 10.5065 87.9214 10.1864L86.7621 11.8162ZM78.6176 7.29716C78.0662 7.32712 77.6434 7.79845 77.6733 8.34992C77.7033 8.9014 78.1746 9.32417 78.7261 9.29422L78.6176 7.29716ZM71.5185 13.084C71.8616 12.6512 71.7888 12.0222 71.356 11.6791C70.9232 11.3361 70.2943 11.4088 69.9512 11.8416L71.5185 13.084ZM66.8263 20.8027C66.8399 21.3548 67.2984 21.7914 67.8505 21.7779C68.4027 21.7643 68.8393 21.3058 68.8257 20.7536L66.8263 20.8027ZM70.908 28.7584C70.6837 28.2538 70.0927 28.0265 69.5881 28.2509C69.0834 28.4752 68.8561 29.0662 69.0805 29.5709L70.908 28.7584ZM73.4356 37.3118C73.7419 37.7714 74.3628 37.8957 74.8223 37.5894C75.2819 37.2831 75.4062 36.6623 75.0999 36.2027L73.4356 37.3118ZM80.2433 43.119C79.8945 42.6908 79.2646 42.6265 78.8364 42.9753C78.4082 43.3242 78.3439 43.9541 78.6927 44.3822L80.2433 43.119ZM84.4756 51.0013C84.8518 51.4056 85.4846 51.4284 85.8889 51.0522C86.2932 50.676 86.316 50.0433 85.9398 49.6389L84.4756 51.0013ZM92.0176 55.82C91.6198 55.437 90.9867 55.4489 90.6037 55.8468C90.2206 56.2446 90.2326 56.8777 90.6304 57.2607L92.0176 55.82ZM6.6572 11.9166C7.75704 14.2237 9.06345 16.7262 10.5861 19.2768L12.3033 18.2516C10.8173 15.7623 9.53982 13.3157 8.46254 11.0559L6.6572 11.9166ZM15.2592 26.2113C16.9328 28.4028 18.7801 30.5337 20.8081 32.5044L22.2019 31.0701C20.2545 29.1777 18.4717 27.1227 16.8487 24.9974L15.2592 26.2113ZM27.3747 37.7935C28.5554 38.5612 29.7825 39.2662 31.0567 39.8964L31.9433 38.1036C30.7431 37.5101 29.5838 36.8443 28.4648 36.1167L27.3747 37.7935ZM31.0567 39.8964C32.4079 40.5646 33.8222 41.1338 35.2861 41.6116L35.9068 39.7104C34.5268 39.2599 33.202 38.7261 31.9433 38.1036L31.0567 39.8964ZM44.1571 43.4095C47.0905 43.6967 50.1153 43.731 53.1567 43.5559L53.0417 41.5592C50.0898 41.7292 47.1695 41.6949 44.352 41.419L44.1571 43.4095ZM62.0623 42.4807C65.0396 41.9416 67.9689 41.2371 70.7792 40.4064L70.2123 38.4884C67.4687 39.2994 64.6097 39.987 61.706 40.5126L62.0623 42.4807ZM79.2202 37.3913C82.2009 36.1248 84.9134 34.7315 87.231 33.2763L86.1675 31.5825C83.9542 32.9722 81.3385 34.3182 78.4381 35.5505L79.2202 37.3913ZM94.1457 27.2183C95.2232 25.6527 95.7989 23.9746 95.4823 22.3129L93.5177 22.6871C93.6974 23.6305 93.4064 24.7648 92.4982 26.0845L94.1457 27.2183ZM95.4823 22.3129C95.1664 20.6542 94.6685 19.1059 94.023 17.6816L92.2014 18.5072C92.7813 19.7868 93.2313 21.1836 93.5177 22.6871L95.4823 22.3129ZM87.9214 10.1864C85.0928 8.17438 81.8037 7.12413 78.6176 7.29716L78.7261 9.29422C81.4024 9.14887 84.2523 10.0309 86.7621 11.8162L87.9214 10.1864ZM69.9512 11.8416C69.0021 13.039 68.195 14.4726 67.5642 16.1475L69.4358 16.8525C70.0009 15.3522 70.7102 14.1038 71.5185 13.084L69.9512 11.8416ZM67.5642 16.1475C67.0098 17.6196 66.7867 19.1859 66.8263 20.8027L68.8257 20.7536C68.7914 19.3529 68.9855 18.048 69.4358 16.8525L67.5642 16.1475ZM69.0805 29.5709C70.2255 32.1465 71.7347 34.7596 73.4356 37.3118L75.0999 36.2027C73.4422 33.7153 71.9948 31.2029 70.908 28.7584L69.0805 29.5709ZM78.6927 44.3822C80.6291 46.759 82.6114 48.9977 84.4756 51.0013L85.9398 49.6389C84.0992 47.6607 82.1467 45.4554 80.2433 43.119L78.6927 44.3822ZM90.6304 57.2607C91.6067 58.2007 92.4064 58.9461 92.9631 59.4572C93.2415 59.7128 93.4591 59.91 93.6077 60.0436C93.682 60.1105 93.739 60.1615 93.7778 60.196C93.7971 60.2132 93.8119 60.2264 93.822 60.2353C93.827 60.2398 93.8309 60.2432 93.8336 60.2456C93.8349 60.2468 93.836 60.2477 93.8367 60.2484C93.8371 60.2487 93.8374 60.2489 93.8376 60.2491C93.8377 60.2492 93.8378 60.2493 93.8379 60.2494C93.8379 60.2494 93.8379 60.2494 93.838 60.2495C93.838 60.2495 93.838 60.2495 94.5 59.5C95.162 58.7505 95.162 58.7505 95.162 58.7505L95.162 58.7505C95.162 58.7505 95.162 58.7505 95.162 58.7505C95.1619 58.7504 95.1617 58.7503 95.1615 58.75C95.161 58.7496 95.1603 58.749 95.1592 58.748C95.1571 58.7461 95.1538 58.7432 95.1493 58.7392C95.1403 58.7313 95.1267 58.7191 95.1084 58.7029C95.072 58.6704 95.0173 58.6215 94.9454 58.5568C94.8016 58.4275 94.589 58.2349 94.3158 57.9841C93.7695 57.4824 92.9813 56.748 92.0176 55.82L90.6304 57.2607Z" fill="#9D90D0"/>
</svg>
