<svg width="167" height="103" viewBox="0 0 167 103" fill="none" xmlns="http://www.w3.org/2000/svg">
<path d="M126.748 42.2354L126.622 43.7301L126.748 42.2354ZM150.149 77.58L151.571 78.0564L150.149 77.58ZM68.2457 96.2341L68.7122 94.8085L68.2457 96.2341ZM0 56.5556L5.91591 72.8344L17.0559 59.5717L0 56.5556ZM2.08435 60.265C2.72592 60.7891 3.67088 60.6939 4.19498 60.0523C4.71908 59.4107 4.62384 58.4658 3.98227 57.9417L2.08435 60.265ZM10.1742 62.804C9.51381 62.3039 8.57299 62.4338 8.07285 63.0942C7.57272 63.7547 7.70266 64.6955 8.36308 65.1956L10.1742 62.804ZM14.8198 69.9236C15.4959 70.4025 16.4321 70.2426 16.9109 69.5665C17.3897 68.8905 17.2298 67.9543 16.5537 67.4755L14.8198 69.9236ZM23.0616 71.9335C22.3709 71.4761 21.4401 71.6653 20.9827 72.356C20.5254 73.0467 20.7145 73.9774 21.4052 74.4348L23.0616 71.9335ZM28.1323 78.7358C28.8375 79.1707 29.7616 78.9515 30.1964 78.2464C30.6312 77.5412 30.4121 76.6171 29.7069 76.1823L28.1323 78.7358ZM36.4965 80.2113C35.7768 79.801 34.8608 80.0518 34.4505 80.7715C34.0402 81.4911 34.2909 82.4072 35.0106 82.8175L36.4965 80.2113ZM42.0258 86.6487C42.7602 87.032 43.6663 86.7473 44.0496 86.0129C44.4329 85.2785 44.1483 84.3724 43.4139 83.9891L42.0258 86.6487ZM50.4695 87.4936C49.7201 87.1405 48.8263 87.4618 48.4733 88.2112C48.1202 88.9607 48.4415 89.8544 49.1909 90.2075L50.4695 87.4936ZM56.5101 93.4589C57.2748 93.7776 58.1531 93.4162 58.4718 92.6516C58.7906 91.8869 58.4292 91.0086 57.6645 90.6899L56.5101 93.4589ZM64.9963 93.5342C64.2165 93.2548 63.3577 93.6604 63.0782 94.4402C62.7987 95.2201 63.2043 96.0788 63.9841 96.3584L64.9963 93.5342ZM71.4746 98.7706C72.2733 98.9906 73.0991 98.5216 73.3192 97.7229C73.5392 96.9242 73.0701 96.0984 72.2715 95.8784L71.4746 98.7706ZM79.559 97.5644C78.7452 97.4092 77.9597 97.9431 77.8046 98.7568C77.6494 99.5706 78.1833 100.356 78.997 100.511L79.559 97.5644ZM86.6013 101.684C87.4239 101.782 88.1702 101.195 88.2683 100.372C88.3663 99.5494 87.7789 98.803 86.9563 98.705L86.6013 101.684ZM94.4271 99.3449C93.5998 99.3015 92.894 99.9369 92.8505 100.764C92.8071 101.591 93.4425 102.297 94.2698 102.341L94.4271 99.3449ZM101.963 102.488C102.791 102.476 103.453 101.794 103.441 100.966C103.428 100.137 102.747 99.4759 101.919 99.4881L101.963 102.488ZM109.394 99.1108C108.568 99.1832 107.958 99.9108 108.03 100.736C108.103 101.561 108.83 102.172 109.656 102.099L109.394 99.1108ZM117.312 101.115C118.129 100.974 118.677 100.198 118.536 99.3816C118.395 98.5652 117.619 98.0174 116.803 98.1581L117.312 101.115ZM124.064 96.541C123.266 96.7631 122.799 97.5901 123.021 98.3882C123.243 99.1863 124.07 99.6533 124.868 99.4312L124.064 96.541ZM132.228 96.8863C132.991 96.5636 133.348 95.6835 133.025 94.9205C132.702 94.1575 131.822 93.8006 131.059 94.1233L132.228 96.8863ZM137.553 90.7293C136.857 91.1778 136.655 92.106 137.104 92.8025C137.552 93.4991 138.481 93.7001 139.177 93.2516L137.553 90.7293ZM145.324 88.2522C145.899 87.6556 145.881 86.706 145.284 86.1313C144.688 85.5565 143.738 85.5743 143.163 86.1709L145.324 88.2522ZM147.338 80.3906C146.958 81.1267 147.246 82.0315 147.983 82.4115C148.719 82.7916 149.623 82.5029 150.004 81.7668L147.338 80.3906ZM152.857 73.6546C153.058 72.8511 152.57 72.0364 151.767 71.8351C150.963 71.6338 150.148 72.122 149.947 72.9256L152.857 73.6546ZM151.411 64.3535C151.333 65.1784 151.939 65.9096 152.764 65.9869C153.589 66.0642 154.32 65.4582 154.398 64.6334L151.411 64.3535ZM154.565 55.4792C154.517 54.6521 153.809 54.02 152.982 54.0672C152.154 54.1145 151.522 54.8233 151.57 55.6504L154.565 55.4792ZM150.408 47.0376C150.583 47.8473 151.381 48.3619 152.191 48.187C153.001 48.0121 153.515 47.2138 153.34 46.4041L150.408 47.0376ZM150.649 37.6229C150.337 36.8555 149.462 36.4864 148.695 36.7985C147.928 37.1106 147.558 37.9856 147.87 38.753L150.649 37.6229ZM143.837 31.1613C144.305 31.8448 145.239 32.0196 145.922 31.5515C146.606 31.0835 146.781 30.15 146.313 29.4664L143.837 31.1613ZM140.006 22.5611C139.359 22.0445 138.415 22.1507 137.898 22.7983C137.382 23.446 137.488 24.3898 138.136 24.9064L140.006 22.5611ZM130.806 21.1665C131.609 21.3686 132.424 20.8811 132.627 20.0777C132.829 19.2743 132.341 18.4592 131.538 18.2571L130.806 21.1665ZM121.982 18.3601C121.194 18.6166 120.763 19.463 121.019 20.2508C121.276 21.0385 122.122 21.4692 122.91 21.2128L121.982 18.3601ZM118.037 26.1709C118.27 25.376 117.815 24.5425 117.02 24.3093C116.225 24.0761 115.391 24.5315 115.158 25.3264L118.037 26.1709ZM115.813 34.8437C116.118 35.6137 116.99 35.9899 117.76 35.6842C118.53 35.3784 118.907 34.5064 118.601 33.7364L115.813 34.8437ZM123.392 39.6191C122.678 39.1998 121.758 39.439 121.339 40.1535C120.92 40.8679 121.159 41.7871 121.873 42.2064L123.392 39.6191ZM130.782 43.9065C131.61 43.9055 132.281 43.2332 132.28 42.4047C132.279 41.5763 131.607 40.9055 130.778 40.9065L130.782 43.9065ZM138.453 40.1165C137.643 40.293 137.13 41.0922 137.307 41.9016C137.483 42.7111 138.282 43.2241 139.092 43.0477L138.453 40.1165ZM147.013 40.1953C147.747 39.8102 148.029 38.9034 147.644 38.1699C147.259 37.4365 146.352 37.1541 145.618 37.5392L147.013 40.1953ZM151.761 33.0878C151.165 33.6634 151.149 34.613 151.725 35.2088C152.3 35.8045 153.25 35.8209 153.846 35.2453L151.761 33.0878ZM159.091 28.6848C159.527 27.9807 159.31 27.0561 158.606 26.6196C157.902 26.1831 156.978 26.4 156.541 27.1041L159.091 28.6848ZM159.94 20.1452C159.646 20.9197 160.036 21.7859 160.81 22.0799C161.585 22.374 162.451 21.9845 162.745 21.2101L159.94 20.1452ZM165.074 13.2843C165.25 12.4748 164.737 11.6758 163.927 11.4997C163.118 11.3235 162.319 11.837 162.143 12.6465L165.074 13.2843ZM163.314 4.88389C163.243 5.70927 163.855 6.43589 164.68 6.50682C165.505 6.57776 166.232 5.96616 166.303 5.14078L163.314 4.88389ZM8.36308 65.1956C10.267 66.6374 12.4294 68.2306 14.8198 69.9236L16.5537 67.4755C14.1912 65.8022 12.0546 64.228 10.1742 62.804L8.36308 65.1956ZM21.4052 74.4348C23.5317 75.843 25.7787 77.2845 28.1323 78.7358L29.7069 76.1823C27.3826 74.749 25.1628 73.325 23.0616 71.9335L21.4052 74.4348ZM35.0106 82.8175C37.2775 84.1099 39.6192 85.3926 42.0258 86.6487L43.4139 83.9891C41.0422 82.7513 38.7332 81.4865 36.4965 80.2113L35.0106 82.8175ZM49.1909 90.2075C51.5833 91.3346 54.0259 92.4232 56.5101 93.4589L57.6645 90.6899C55.2247 89.6727 52.8236 88.6026 50.4695 87.4936L49.1909 90.2075ZM63.9841 96.3584C65.2413 96.8089 66.5066 97.2433 67.7791 97.6597L68.7122 94.8085C67.467 94.401 66.2281 93.9757 64.9963 93.5342L63.9841 96.3584ZM67.7791 97.6597C68.9769 98.0517 70.2103 98.4223 71.4746 98.7706L72.2715 95.8784C71.0506 95.542 69.8627 95.185 68.7122 94.8085L67.7791 97.6597ZM78.997 100.511C81.4668 100.982 84.0108 101.375 86.6013 101.684L86.9563 98.705C84.4333 98.4043 81.9583 98.0219 79.559 97.5644L78.997 100.511ZM94.2698 102.341C96.8228 102.475 99.3953 102.526 101.963 102.488L101.919 99.4881C99.42 99.525 96.9147 99.4755 94.4271 99.3449L94.2698 102.341ZM109.656 102.099C112.246 101.872 114.807 101.546 117.312 101.115L116.803 98.1581C114.385 98.5747 111.907 98.8906 109.394 99.1108L109.656 102.099ZM124.868 99.4312C127.427 98.7193 129.892 97.8742 132.228 96.8863L131.059 94.1233C128.855 95.0557 126.513 95.8598 124.064 96.541L124.868 99.4312ZM139.177 93.2516C141.451 91.7874 143.519 90.1259 145.324 88.2522L143.163 86.1709C141.538 87.8583 139.655 89.3757 137.553 90.7293L139.177 93.2516ZM150.004 81.7668C150.613 80.5857 151.138 79.3492 151.571 78.0564L148.726 77.1036C148.342 78.2499 147.878 79.3449 147.338 80.3906L150.004 81.7668ZM151.571 78.0564C152.06 76.5956 152.488 75.1268 152.857 73.6546L149.947 72.9256C149.597 74.3235 149.191 75.7176 148.726 77.1036L151.571 78.0564ZM154.398 64.6334C154.687 61.5406 154.736 58.4746 154.565 55.4792L151.57 55.6504C151.732 58.4976 151.686 61.4128 151.411 64.3535L154.398 64.6334ZM153.34 46.4041C152.674 43.3216 151.769 40.3749 150.649 37.6229L147.87 38.753C148.921 41.3371 149.777 44.1171 150.408 47.0376L153.34 46.4041ZM146.313 29.4664C144.469 26.7732 142.353 24.4331 140.006 22.5611L138.136 24.9064C140.219 26.5681 142.138 28.6787 143.837 31.1613L146.313 29.4664ZM131.538 18.2571C129.988 17.8672 128.388 17.6632 126.748 17.6632V20.6632C128.137 20.6632 129.491 20.8358 130.806 21.1665L131.538 18.2571ZM126.748 17.6632C124.972 17.6632 123.384 17.9038 121.982 18.3601L122.91 21.2128C123.972 20.8672 125.242 20.6632 126.748 20.6632V17.6632ZM115.158 25.3264C114.266 28.3666 114.607 31.8079 115.813 34.8437L118.601 33.7364C117.593 31.1989 117.368 28.4514 118.037 26.1709L115.158 25.3264ZM121.873 42.2064C123.289 43.0374 124.886 43.5844 126.622 43.7301L126.873 40.7406C125.617 40.6352 124.45 40.2402 123.392 39.6191L121.873 42.2064ZM126.622 43.7301C128.057 43.8505 129.443 43.908 130.782 43.9065L130.778 40.9065C129.528 40.9079 128.227 40.8542 126.873 40.7406L126.622 43.7301ZM139.092 43.0477C142.025 42.4082 144.656 41.4331 147.013 40.1953L145.618 37.5392C143.503 38.6497 141.127 39.5335 138.453 40.1165L139.092 43.0477ZM153.846 35.2453C155.919 33.2425 157.648 31.0121 159.091 28.6848L156.541 27.1041C155.211 29.2493 153.633 31.2792 151.761 33.0878L153.846 35.2453ZM162.745 21.2101C163.783 18.4773 164.532 15.7754 165.074 13.2843L162.143 12.6465C161.626 15.0192 160.916 17.5751 159.94 20.1452L162.745 21.2101ZM166.303 5.14078C166.412 3.87129 166.461 2.84041 166.483 2.12252C166.494 1.76349 166.498 1.48247 166.499 1.28875C166.5 1.19188 166.5 1.11681 166.5 1.0647C166.5 1.03864 166.5 1.01832 166.499 1.00389C166.499 0.996668 166.499 0.990919 166.499 0.986659C166.499 0.984529 166.499 0.982771 166.499 0.981387C166.499 0.980695 166.499 0.980097 166.499 0.979592C166.499 0.97934 166.499 0.979111 166.499 0.978906C166.499 0.978803 166.499 0.978667 166.499 0.978616C166.499 0.978485 166.499 0.978361 164.999 1C163.5 1.02164 163.499 1.02153 163.499 1.02142C163.499 1.02139 163.499 1.02129 163.499 1.02123C163.499 1.02112 163.499 1.02103 163.499 1.02097C163.499 1.02084 163.499 1.0208 163.499 1.02086C163.499 1.02097 163.499 1.02145 163.5 1.0223C163.5 1.02399 163.5 1.02716 163.5 1.03179C163.5 1.04103 163.5 1.0561 163.5 1.07684C163.5 1.11832 163.5 1.18248 163.5 1.26817C163.498 1.43958 163.495 1.69702 163.484 2.03132C163.464 2.70011 163.418 3.6754 163.314 4.88389L166.303 5.14078Z" fill="#9D90D0"/>
</svg>
